<?xml version="1.0" encoding="UTF-8"?>
<svg id="Layer_2" data-name="Layer 2" xmlns="http://www.w3.org/2000/svg" viewBox="0 0 1184.09 1286.47">
  <defs>
    <style>
      .cls-1 {
        fill: #f2f2f2;
      }
    </style>
  </defs>
  <g id="objekti">
    <g>
      <polygon class="cls-1" points="1184.09 1226.54 422.1 1226.54 422.1 957.73 488.87 957.73 488.87 1159.62 1117.32 1159.62 1117.32 986.41 590.04 682.24 66.77 986.34 66.77 1159.62 252.71 1159.62 252.71 1226.54 0 1226.54 0 947.8 589.92 604.97 1184.09 947.73 1184.09 1226.54"/>
      <polygon class="cls-1" points="929.59 593.37 862.82 593.37 862.82 342.27 486.8 117.76 486.8 455.85 420.03 455.85 420.03 0 929.59 304.24 929.59 593.37"/>
      <path class="cls-1" d="M453.42,603.29c-51.39,0-93.2-41.9-93.2-93.38s41.81-93.39,93.2-93.39,93.19,41.9,93.19,93.39-41.81,93.38-93.19,93.38ZM453.42,483.43c-14.57,0-26.42,11.88-26.42,26.48s11.85,26.47,26.42,26.47,26.42-11.88,26.42-26.47-11.85-26.48-26.42-26.48Z"/>
      <path class="cls-1" d="M453.42,1011.73c-51.39,0-93.2-41.9-93.2-93.38s41.81-93.39,93.2-93.39,93.19,41.9,93.19,93.39-41.81,93.38-93.19,93.38ZM453.42,891.87c-14.57,0-26.42,11.88-26.42,26.48s11.85,26.47,26.42,26.47,26.42-11.88,26.42-26.47-11.85-26.48-26.42-26.48Z"/>
      <path class="cls-1" d="M278.62,1286.47c-51.39,0-93.2-41.9-93.2-93.39s41.81-93.39,93.2-93.39,93.19,41.9,93.19,93.39-41.81,93.39-93.19,93.39ZM278.62,1166.6c-14.57,0-26.42,11.88-26.42,26.48s11.85,26.48,26.42,26.48,26.42-11.88,26.42-26.48-11.85-26.48-26.42-26.48Z"/>
      <path class="cls-1" d="M896.21,548.05c-51.39,0-93.2,41.9-93.2,93.39s41.81,93.39,93.2,93.39,93.2-41.9,93.2-93.39-41.81-93.39-93.2-93.39ZM896.21,667.92c-14.57,0-26.42-11.88-26.42-26.48s11.85-26.48,26.42-26.48,26.42,11.88,26.42,26.48-11.85,26.48-26.42,26.48Z"/>
    </g>
  </g>
</svg>