<?xml version="1.0" encoding="UTF-8"?>
<svg id="Layer_2" data-name="Layer 2" xmlns="http://www.w3.org/2000/svg" viewBox="0 0 30.03 28.78">
  <defs>
    <style>
      .cls-1 {
        fill: #01b6e9;
      }
    </style>
  </defs>
  <g id="log_in" data-name="log in">
    <g>
      <path class="cls-1" d="M21.21,3.38c0,.68,0,1.41,0,2.14,0,3.42-.01,6.85.01,10.27,0,.49-.15.76-.54,1-1.7,1.02-3.2,2.3-4.42,3.94-1.21,1.62-1.93,3.43-1.99,5.53-.05,1.72-1.29,2.78-2.8,2.47-.97-.2-1.77-1.12-1.8-2.2-.06-2.5.09-4.99.96-7.34.43-1.15-.3-1.96-1.3-1.93-2.32.06-4.64.04-6.96.02-1.74-.02-2.83-1.76-2.19-3.45.24-.62.68-1.02,1.27-1.33-.59-.71-.83-1.51-.61-2.42.22-.92.83-1.46,1.68-1.79-.63-.87-.8-1.8-.37-2.78.43-.96,1.22-1.39,2.25-1.42-.47-.64-.63-1.3-.52-2.02C4.07.91,4.94.02,6.08,0c2.7-.02,5.41,0,8.11.06,1.47.04,2.77.66,3.93,1.61.57.46,1.15.91,1.76,1.28.38.22.84.28,1.32.42Z"/>
      <path class="cls-1" d="M30.03,1.23v17.24c-.14.01-.26.03-.37.03-1.75,0-3.51.01-5.26,0-1.03,0-1.67-.69-1.67-1.78,0-4.55,0-9.1,0-13.64,0-1.19.63-1.85,1.75-1.85,1.69,0,3.39,0,5.08,0,.15,0,.29,0,.47,0Z"/>
    </g>
  </g>
</svg>