<?xml version="1.0" encoding="UTF-8"?>
<svg id="Layer_2" data-name="Layer 2" xmlns="http://www.w3.org/2000/svg" viewBox="0 0 78.55 108.21">
  <defs>
    <style>
      .cls-1 {
        fill: #01b8eb;
      }
    </style>
  </defs>
  <g id="Layer_3" data-name="Layer 3">
    <g>
      <path class="cls-1" d="M14.3,22.03c-.51,0-1.01-.19-1.39-.52l-4.03-3.54c-.88-.77-.96-2.1-.19-2.98.77-.88,2.1-.96,2.98-.19l2.41,2.12,5.6-6.62c.75-.89,2.08-1,2.97-.25.89.75,1,2.09.25,2.97l-6.99,8.26c-.37.43-.89.7-1.46.74-.05,0-.1,0-.16,0Z"/>
      <path class="cls-1" d="M17.91,31.57H2.11c-1.16,0-2.11-.94-2.11-2.11V2.11C0,.94.95,0,2.11,0h27.35c1.17,0,2.11.94,2.11,2.11v13.91c0,1.17-.95,2.11-2.11,2.11s-2.11-.94-2.11-2.11V4.22H4.22v23.13h13.69c1.17,0,2.11.94,2.11,2.11s-.95,2.11-2.11,2.11Z"/>
      <path class="cls-1" d="M76.44,31.57h-27.34c-1.17,0-2.11-.94-2.11-2.11V2.12C46.99.95,47.93,0,49.1,0h27.34c1.17,0,2.11.94,2.11,2.11v27.34c0,1.17-.95,2.11-2.11,2.11ZM51.21,27.35h23.12V4.23h-23.12v23.12Z"/>
      <path class="cls-1" d="M65.75,15.79l3.26-3.26c.82-.82.82-2.16,0-2.98-.82-.82-2.16-.82-2.98,0l-3.26,3.26-3.26-3.26c-.82-.82-2.16-.82-2.98,0-.82.82-.82,2.16,0,2.98l3.26,3.26-3.26,3.26c-.82.82-.82,2.16,0,2.98.41.41.95.62,1.49.62s1.08-.21,1.49-.62l3.26-3.26,3.26,3.26c.41.41.95.62,1.49.62s1.08-.21,1.49-.62c.82-.82.82-2.16,0-2.98l-3.26-3.26Z"/>
      <path class="cls-1" d="M70.31,56.8c0-4.18-3.41-7.58-7.71-7.58-1.3,0-2.5.36-3.57.94-.79-3.35-3.79-5.86-7.47-5.86-1.31,0-2.53.37-3.61.95-.81-3.31-3.8-5.78-7.45-5.78-1.21,0-2.34.31-3.36.82v-12.94c0-4.19-3.4-7.59-7.69-7.59s-7.58,3.41-7.58,7.59v31.84c-8.06-4.68-12.09-3.01-14.08-.55-3.45,4.27-1.49,12.75,2.43,16.38,8.76,8.76,15.48,31.44,15.55,31.66.26.9,1.09,1.52,2.03,1.52h33.17c1.13,0,2.06-.89,2.11-2.01.39-8.48,7.08-31.02,7.15-31.25,0,0,0-.01,0-.02.04-.12.06-.25.07-.37,0-.02,0-.04,0-.05,0-.05.02-.1.02-.16v-17.54ZM59.01,103.99h-29.66c-1.71-5.43-7.92-23.72-16.2-32-2.63-2.44-3.81-8.54-2.07-10.69,1.43-1.76,5.53-.63,10.8,2.89v10.15c0,1.17.95,2.11,2.11,2.11s2.11-.94,2.11-2.11V27.35c0-1.86,1.51-3.37,3.47-3.37,1.85,0,3.36,1.51,3.36,3.37v30.61c0,1.17.95,2.11,2.11,2.11s2.11-.94,2.11-2.11v-10.91c0-1.85,1.51-3.36,3.47-3.36,1.85,0,3.36,1.51,3.36,3.36v13.32c0,1.17.95,2.11,2.11,2.11s2.11-.94,2.11-2.11v-8.5c0-1.85,1.51-3.36,3.49-3.36,1.85,0,3.36,1.51,3.36,3.36v11.18c0,1.17.95,2.11,2.11,2.11s2.11-.94,2.11-2.11v-6.26c0-1.85,1.51-3.36,3.47-3.36,1.86,0,3.37,1.51,3.37,3.36v17.21c-.74,2.49-6.01,20.54-7.07,29.98Z"/>
    </g>
  </g>
</svg>