<?xml version="1.0" encoding="UTF-8"?>
<svg id="Layer_2" data-name="Layer 2" xmlns="http://www.w3.org/2000/svg" viewBox="0 0 65.5 65.5">
  <defs>
    <style>
      .cls-1 {
        fill: #f1f1f1;
      }

      .cls-2 {
        fill: #01b7ea;
      }
    </style>
  </defs>
  <g id="objekti">
    <circle class="cls-2" cx="32.75" cy="32.75" r="32.75"/>
    <path class="cls-1" d="M28.39,52.99c-7.92,0-12.64-7.53-9.48-14.18,2.86-6.03,5.82-12.01,8.73-18.02.71-1.46,1.4-2.93,2.14-4.38,1.79-3.5,5.96-4.89,9.44-3.16,3.44,1.72,4.9,5.86,3.22,9.36-3.57,7.43-7.17,14.84-10.78,22.25-1.08,2.21-3.54,3.08-5.66,2.07-2.13-1.02-3.01-3.49-1.94-5.7,3.55-7.37,7.13-14.73,10.71-22.09.45-.92,1.22-1.23,1.97-.86.75.38.95,1.16.5,2.1-3.43,7.08-6.87,14.15-10.3,21.23-.15.31-.32.62-.44.95-.29.76,0,1.5.68,1.85.68.34,1.45.12,1.88-.58.18-.29.32-.62.47-.93,3.43-7.08,6.87-14.15,10.3-21.23,1.5-3.11-.56-6.5-3.89-6.37-1.78.07-3.04,1-3.82,2.6-2.63,5.43-5.27,10.86-7.9,16.29-1,2.06-2.05,4.1-2.97,6.2-1.45,3.32-.09,7.16,3.08,8.94,3.13,1.76,7.14.85,9.21-2.11.3-.43.55-.89.77-1.36,3.46-7.13,6.92-14.26,10.37-21.38.1-.21.19-.42.32-.62.42-.67,1.15-.9,1.8-.59.68.33.99,1.09.64,1.84-.69,1.5-1.43,2.98-2.15,4.47-2.89,5.95-5.74,11.92-8.68,17.85-1.8,3.64-4.85,5.41-8.22,5.56Z"/>
  </g>
</svg>