<?xml version="1.0" encoding="UTF-8"?>
<svg id="Layer_2" data-name="Layer 2" xmlns="http://www.w3.org/2000/svg" viewBox="0 0 650 385.47">
  <defs>
    <style>
      .cls-1 {
        fill: #fff;
      }

      .cls-2 {
        fill: #05094f;
      }

      .cls-3 {
        fill: #01b8eb;
      }
    </style>
  </defs>
  <g id="objekti">
    <g>
      <polygon class="cls-3" points="428.25 242.78 277.1 242.78 277.1 181.78 290.34 181.78 290.34 229.53 415 229.53 415 195.25 310.41 135.04 206.62 195.24 206.62 229.53 243.5 229.53 243.5 242.78 193.37 242.78 193.37 187.61 310.39 119.75 428.25 187.59 428.25 242.78"/>
      <polygon class="cls-3" points="377.76 142.68 364.52 142.68 364.52 67.75 289.93 23.31 289.93 109.99 276.69 109.99 276.69 0 377.76 60.22 377.76 142.68"/>
      <g>
        <circle class="cls-1" cx="283.31" cy="100.93" r="11.86"/>
        <path class="cls-3" d="M283.31,119.42c-10.19,0-18.49-8.29-18.49-18.48s8.29-18.49,18.49-18.49,18.49,8.29,18.49,18.49-8.29,18.48-18.49,18.48ZM283.31,95.69c-2.89,0-5.24,2.35-5.24,5.24s2.35,5.24,5.24,5.24,5.24-2.35,5.24-5.24-2.35-5.24-5.24-5.24Z"/>
      </g>
      <g>
        <circle class="cls-1" cx="283.31" cy="181.78" r="11.86"/>
        <path class="cls-3" d="M283.31,200.26c-10.19,0-18.49-8.29-18.49-18.48s8.29-18.49,18.49-18.49,18.49,8.29,18.49,18.49-8.29,18.48-18.49,18.48ZM283.31,176.53c-2.89,0-5.24,2.35-5.24,5.24s2.35,5.24,5.24,5.24,5.24-2.35,5.24-5.24-2.35-5.24-5.24-5.24Z"/>
      </g>
      <g>
        <circle class="cls-1" cx="248.64" cy="236.16" r="11.86"/>
        <path class="cls-3" d="M248.64,254.64c-10.19,0-18.49-8.29-18.49-18.49s8.29-18.49,18.49-18.49,18.49,8.29,18.49,18.49-8.29,18.49-18.49,18.49ZM248.64,230.92c-2.89,0-5.24,2.35-5.24,5.24s2.35,5.24,5.24,5.24,5.24-2.35,5.24-5.24-2.35-5.24-5.24-5.24Z"/>
      </g>
      <g>
        <circle class="cls-1" cx="371.14" cy="126.97" r="11.86"/>
        <path class="cls-3" d="M371.14,145.45c-10.19,0-18.49-8.29-18.49-18.49s8.29-18.49,18.49-18.49,18.49,8.29,18.49,18.49-8.29,18.49-18.49,18.49ZM371.14,121.72c-2.89,0-5.24,2.35-5.24,5.24s2.35,5.24,5.24,5.24,5.24-2.35,5.24-5.24-2.35-5.24-5.24-5.24Z"/>
      </g>
      <g>
        <path class="cls-2" d="M0,384.57v-98.98h26.83c7.2,0,12.44,1.75,15.72,5.26,3.28,3.51,4.92,9.29,4.92,17.35v4.33c0,4.65-.84,8.42-2.5,11.3-1.67,2.89-4.21,4.78-7.62,5.68,4.46,1.12,7.45,3.76,8.97,7.9,1.52,4.14,2.28,9.2,2.28,15.16,0,6.41-.6,12.02-1.8,16.81-1.2,4.8-3.37,8.53-6.52,11.19-3.15,2.66-7.63,3.99-13.44,3.99H0ZM19.35,322.88h4.05c1.84,0,3.02-.71,3.54-2.14.52-1.42.79-3.13.79-5.12v-9.95c0-3.19-1.41-4.78-4.22-4.78h-4.16v21.99ZM21.31,367.14c5.14,0,7.7-2.44,7.7-7.31v-12.37c0-2.81-.42-5.03-1.27-6.66s-2.43-2.45-4.75-2.45h-3.66v28.68c.82.08,1.48.11,1.97.11Z"/>
        <path class="cls-2" d="M67.09,384.57v-32.56l-15.8-66.42h19.63l5.51,33.52,5.51-33.52h19.57l-15.75,66.42v32.56h-18.67Z"/>
        <path class="cls-2" d="M126.93,385.47c-14.14,0-21.2-10.12-21.2-30.37v-42.68c0-18.48,8.1-27.72,24.3-27.72,6.67,0,11.79,1.34,15.35,4.02,3.56,2.68,6.02,6.59,7.37,11.73s2.02,11.4,2.02,18.78h-19.34v-8.77c0-2.14-.29-3.93-.87-5.37-.58-1.44-1.79-2.16-3.63-2.16-2.29,0-3.8.77-4.53,2.31s-1.1,3.23-1.1,5.06v47.97c0,2.66.35,4.83,1.04,6.5.69,1.67,2.05,2.5,4.08,2.5s3.5-.83,4.19-2.5c.69-1.67,1.04-3.87,1.04-6.61v-14.12h-5.29v-17.1h24.18v57.64h-7.93l-3.37-8.32c-3.45,6.15-8.88,9.22-16.31,9.22Z"/>
        <path class="cls-2" d="M182.77,385.47c-14.14,0-21.2-10.12-21.2-30.37v-42.68c0-18.48,8.1-27.72,24.3-27.72,6.67,0,11.79,1.34,15.35,4.02,3.56,2.68,6.02,6.59,7.37,11.73,1.35,5.14,2.02,11.4,2.02,18.78h-19.35v-8.77c0-2.14-.29-3.93-.87-5.37-.58-1.44-1.79-2.16-3.63-2.16-2.29,0-3.8.77-4.53,2.31-.73,1.54-1.1,3.23-1.1,5.06v47.97c0,2.66.35,4.83,1.04,6.5.69,1.67,2.05,2.5,4.08,2.5s3.5-.83,4.19-2.5c.69-1.67,1.04-3.87,1.04-6.61v-14.12h-5.29v-17.1h24.18v57.64h-7.93l-3.37-8.32c-3.45,6.15-8.88,9.22-16.31,9.22Z"/>
        <path class="cls-2" d="M215.5,384.57l9.56-98.98h33.57l9.39,98.98h-18.73l-1.41-15.97h-11.92l-1.24,15.97h-19.23ZM237.38,352.79h9l-4.33-50.33h-.9l-3.77,50.33Z"/>
        <path class="cls-2" d="M297.61,385.47c-9.04,0-15.55-2.25-19.54-6.75-3.99-4.5-5.99-11.66-5.99-21.48v-9.67h19.57v12.37c0,2.29.35,4.08,1.04,5.37.69,1.29,1.9,1.94,3.63,1.94s3.05-.52,3.74-1.57c.69-1.05,1.04-2.78,1.04-5.17,0-3.04-.3-5.58-.9-7.62-.6-2.04-1.64-3.99-3.12-5.85-1.48-1.86-3.54-4.02-6.16-6.5l-8.89-8.44c-6.64-6.26-9.95-13.42-9.95-21.48s1.96-14.86,5.88-19.29c3.92-4.42,9.59-6.64,17.01-6.64,9.07,0,15.51,2.42,19.32,7.25,3.8,4.84,5.71,12.19,5.71,22.05h-20.13v-6.8c0-1.35-.38-2.4-1.15-3.15-.77-.75-1.81-1.12-3.12-1.12-1.57,0-2.73.44-3.46,1.32-.73.88-1.1,2.02-1.1,3.4s.37,2.89,1.12,4.5c.75,1.61,2.23,3.47,4.44,5.57l11.42,10.97c2.29,2.17,4.39,4.47,6.3,6.89,1.91,2.42,3.45,5.23,4.61,8.44s1.74,7.11,1.74,11.73c0,9.3-1.72,16.58-5.15,21.85-3.43,5.27-9.4,7.9-17.91,7.9Z"/>
        <path class="cls-2" d="M350.76,385.47c-9.04,0-15.55-2.25-19.54-6.75-3.99-4.5-5.99-11.66-5.99-21.48v-9.67h19.57v12.37c0,2.29.35,4.08,1.04,5.37.69,1.29,1.9,1.94,3.63,1.94s3.05-.52,3.74-1.57c.69-1.05,1.04-2.78,1.04-5.17,0-3.04-.3-5.58-.9-7.62-.6-2.04-1.64-3.99-3.12-5.85-1.48-1.86-3.54-4.02-6.16-6.5l-8.89-8.44c-6.64-6.26-9.95-13.42-9.95-21.48s1.96-14.86,5.88-19.29c3.92-4.42,9.59-6.64,17.01-6.64,9.07,0,15.51,2.42,19.32,7.25,3.8,4.84,5.71,12.19,5.71,22.05h-20.13v-6.8c0-1.35-.38-2.4-1.15-3.15-.77-.75-1.81-1.12-3.12-1.12-1.57,0-2.73.44-3.46,1.32-.73.88-1.1,2.02-1.1,3.4s.37,2.89,1.12,4.5c.75,1.61,2.23,3.47,4.44,5.57l11.42,10.97c2.29,2.17,4.39,4.47,6.3,6.89,1.91,2.42,3.45,5.23,4.61,8.44,1.16,3.21,1.74,7.11,1.74,11.73,0,9.3-1.72,16.58-5.15,21.85-3.43,5.27-9.4,7.9-17.91,7.9Z"/>
        <path class="cls-2" d="M379.49,384.57v-98.98h19.12v98.98h-19.12Z"/>
        <path class="cls-2" d="M430,385.47c-9.04,0-15.55-2.25-19.54-6.75-3.99-4.5-5.99-11.66-5.99-21.48v-9.67h19.57v12.37c0,2.29.35,4.08,1.04,5.37.69,1.29,1.9,1.94,3.63,1.94s3.05-.52,3.74-1.57c.69-1.05,1.04-2.78,1.04-5.17,0-3.04-.3-5.58-.9-7.62-.6-2.04-1.64-3.99-3.12-5.85-1.48-1.86-3.54-4.02-6.16-6.5l-8.89-8.44c-6.64-6.26-9.95-13.42-9.95-21.48s1.96-14.86,5.88-19.29c3.92-4.42,9.59-6.64,17.01-6.64,9.07,0,15.51,2.42,19.32,7.25,3.8,4.84,5.71,12.19,5.71,22.05h-20.13v-6.8c0-1.35-.38-2.4-1.15-3.15-.77-.75-1.81-1.12-3.12-1.12-1.57,0-2.73.44-3.46,1.32-.73.88-1.1,2.02-1.1,3.4s.37,2.89,1.12,4.5,2.23,3.47,4.44,5.57l11.42,10.97c2.29,2.17,4.39,4.47,6.3,6.89,1.91,2.42,3.45,5.23,4.61,8.44,1.16,3.21,1.74,7.11,1.74,11.73,0,9.3-1.72,16.58-5.15,21.85-3.43,5.27-9.4,7.9-17.91,7.9Z"/>
        <path class="cls-2" d="M468.13,384.57v-79.97h-11.75v-19.01h43.3v19.01h-11.75v79.97h-19.8Z"/>
        <path class="cls-2" d="M505.19,384.57v-98.98h39.59v19.12h-19.46v19.29h18.67v18.62h-18.67v22.66h20.75v19.29h-40.89Z"/>
        <path class="cls-2" d="M552.6,384.57v-98.98h20.36l9.11,47.41v-47.41h19.12v98.98h-19.35l-9.9-49.49v49.49h-19.35Z"/>
        <path class="cls-2" d="M618.45,384.57v-79.97h-11.75v-19.01h43.3v19.01h-11.75v79.97h-19.8Z"/>
      </g>
    </g>
  </g>
</svg>