<?xml version="1.0" encoding="UTF-8"?>
<svg id="Layer_2" data-name="Layer 2" xmlns="http://www.w3.org/2000/svg" viewBox="0 0 96.73 106.11">
  <defs>
    <style>
      .cls-1 {
        fill: #01b8eb;
      }
    </style>
  </defs>
  <g id="Layer_3" data-name="Layer 3">
    <g>
      <path class="cls-1" d="M65.06,20.02h-12.65c-1.18,0-2.14-.96-2.14-2.14s.96-2.14,2.14-2.14h12.65c1.18,0,2.14.96,2.14,2.14s-.96,2.14-2.14,2.14Z"/>
      <path class="cls-1" d="M65.06,26.49h-20.51c-1.18,0-2.14-.96-2.14-2.14s.96-2.14,2.14-2.14h20.51c1.18,0,2.14.96,2.14,2.14s-.96,2.14-2.14,2.14Z"/>
      <path class="cls-1" d="M60.56,87.56H18.86c-1.18,0-2.14-.96-2.14-2.14s.96-2.14,2.14-2.14h41.7c1.18,0,2.14.96,2.14,2.14s-.96,2.14-2.14,2.14Z"/>
      <g>
        <path class="cls-1" d="M77.28,68.46c-1.18,0-2.14.96-2.14,2.14v27.01c0,2.33-1.9,4.23-4.23,4.23H8.24c-2.19,0-3.97-1.78-3.97-3.97V23.22h15.6c1.84,0,3.35-1.5,3.35-3.33V4.28h51.93v33.18c0,.21.04.41.1.6l-5.93,6.77-4.8-4.4c-.85-.78-2.16-.74-2.97.07l-7.9,8.01-6.88-8.88c-.45-.58-1.17-.89-1.91-.82-.73.08-1.38.52-1.7,1.18l-7.43,15.12-7.21.05c-.59,0-1.15.25-1.55.68l-5.55,5.93-4.09-1.93c-.82-.39-1.8-.21-2.43.43l-5.1,5.18c-.83.84-.82,2.19.02,3.02.42.41.96.61,1.5.61s1.1-.21,1.52-.64l4.04-4.1,4.13,1.95c.84.39,1.84.2,2.47-.47l5.98-6.4,7.61-.05c.81,0,1.55-.47,1.9-1.2l6.51-13.23,6.28,8.11c.38.49.95.79,1.56.82.61.05,1.22-.19,1.65-.63l8.17-8.28,4.89,4.49c.42.39.98.59,1.56.56.57-.03,1.11-.29,1.49-.73l11.17-12.74,12.35-7.23c1.02-.6,1.36-1.91.76-2.92-.6-1.02-1.91-1.36-2.93-.76l-12.65,7.41c-.14.08-.26.2-.37.31V3.34c0-1.84-1.5-3.34-3.35-3.34H21.08c-.33,0-.65.08-.94.23-.04.02-.08.04-.12.06-.16.09-.32.2-.45.34L.63,19.57c-.13.13-.24.29-.33.45-.02.04-.05.08-.07.12-.08.17-.15.34-.18.52,0,0,0,0,0,0-.03.14-.04.27-.04.41v76.79c0,4.55,3.7,8.24,8.24,8.24h62.67c4.69,0,8.51-3.82,8.51-8.51v-27.01c0-1.18-.96-2.14-2.14-2.14ZM7.3,18.94l5.82-5.82,5.82-5.82v11.64H7.3Z"/>
        <path class="cls-1" d="M96.01,54.54l-7.22-6.39c-.83-.73-2.08-.72-2.88.04l-15.49,14.59-9.36-6.42c-.78-.54-1.82-.49-2.55.1l-12.06,9.77-4.16-4.56c-.44-.49-1.08-.75-1.74-.69-.65.05-1.25.39-1.62.94l-3.8,5.65-3.45-2.31c-.52-.35-1.16-.45-1.76-.28-.6.17-1.1.59-1.36,1.15l-2.13,4.55-5.9-1.48c-.3-.08-.62-.08-.93-.03l-8.7,1.68c-1.16.22-1.92,1.35-1.69,2.51.22,1.16,1.35,1.92,2.5,1.69l8.23-1.59,7.15,1.8c.17.04.35.06.52.06.81,0,1.58-.47,1.94-1.23l1.82-3.89,3.15,2.11c.98.65,2.3.39,2.96-.58l3.47-5.16,3.69,4.04c.76.84,2.05.93,2.92.22l12.38-10.03,9.47,6.49c.83.57,1.94.48,2.67-.21l15.32-14.43,5.75,5.1c.88.78,2.24.7,3.02-.18.78-.88.7-2.24-.18-3.02Z"/>
      </g>
      <path class="cls-1" d="M60.56,94.24H18.86c-1.18,0-2.14-.96-2.14-2.14s.96-2.14,2.14-2.14h41.7c1.18,0,2.14.96,2.14,2.14s-.96,2.14-2.14,2.14Z"/>
    </g>
  </g>
</svg>