<?xml version="1.0" encoding="UTF-8"?>
<svg id="Layer_2" data-name="Layer 2" xmlns="http://www.w3.org/2000/svg" viewBox="0 0 109.39 100.63">
  <defs>
    <style>
      .cls-1 {
        fill: #01b8eb;
      }
    </style>
  </defs>
  <g id="Layer_3" data-name="Layer 3">
    <g>
      <path class="cls-1" d="M100.09,8.61c-.27-.15-.58-.24-.9-.26V2.11c0-1.17-.94-2.11-2.11-2.11h-9.61c-1.17,0-2.11.95-2.11,2.11v6.24c-1.11.06-1.99.97-1.99,2.1v73.87c0,1.07.8,1.96,1.83,2.09,1.84,3.45,4.26,8.02,4.96,9.37v2.74c0,1.17.94,2.11,2.11,2.11s2.11-.95,2.11-2.11v-2.75c.69-1.34,3.13-5.92,4.98-9.36,1.03-.14,1.82-1.02,1.82-2.09V13.3c2.51,1.02,3.99,3.06,3.99,5.86v22.86c0,1.16.94,2.11,2.11,2.11s2.11-.95,2.11-2.11v-22.86c0-5.46-3.7-9.5-9.3-10.54ZM87.58,12.56h9.37v42.22h-9.37V12.56ZM94.97,4.22v4.12h-5.39v-4.12h5.39ZM96.22,83.32c-1.8,3.36-3.06,5.72-3.95,7.4-.89-1.68-2.14-4.04-3.93-7.39-.18-.34-.44-.61-.75-.8v-23.52h9.37v23.53c-.3.19-.56.46-.73.79Z"/>
      <g>
        <path class="cls-1" d="M49.58,38.58h-28.34c-1.17,0-2.11-.95-2.11-2.11s.94-2.11,2.11-2.11h28.34c1.17,0,2.11.95,2.11,2.11s-.94,2.11-2.11,2.11Z"/>
        <path class="cls-1" d="M31.51,28.97h-10.26c-1.17,0-2.11-.95-2.11-2.11s.94-2.11,2.11-2.11h10.26c1.17,0,2.11.95,2.11,2.11s-.94,2.11-2.11,2.11Z"/>
        <path class="cls-1" d="M31.51,75.4h-10.26c-1.17,0-2.11-.95-2.11-2.11s.94-2.11,2.11-2.11h10.26c1.17,0,2.11.95,2.11,2.11s-.94,2.11-2.11,2.11Z"/>
        <path class="cls-1" d="M45.49,47.85h-24.24c-1.17,0-2.11-.95-2.11-2.11s.94-2.11,2.11-2.11h24.24c1.17,0,2.11.95,2.11,2.11s-.94,2.11-2.11,2.11Z"/>
        <path class="cls-1" d="M49.58,57h-28.34c-1.17,0-2.11-.95-2.11-2.11s.94-2.11,2.11-2.11h28.34c1.17,0,2.11.95,2.11,2.11s-.94,2.11-2.11,2.11Z"/>
        <path class="cls-1" d="M77.83,27.32c0-.69-.33-1.3-.83-1.68L52.19.83c-.13-.13-.29-.24-.44-.33-.04-.02-.08-.05-.12-.07-.16-.08-.33-.14-.5-.18,0,0-.02,0-.02,0-.13-.02-.26-.04-.4-.04H2.11C.94.21,0,1.15,0,2.32v95.98c0,1.17.94,2.11,2.11,2.11h73.58c1.17,0,2.11-.95,2.11-2.11V27.6c.01-.09.03-.18.03-.28ZM70.6,25.21h-17.8V7.41l.08.08,17.72,17.72ZM4.22,96.19V4.43h44.36v22.89c0,1.17.94,2.11,2.11,2.11h22.89v66.76H4.22Z"/>
      </g>
    </g>
  </g>
</svg>