<?xml version="1.0" encoding="UTF-8"?>
<svg id="Layer_2" data-name="Layer 2" xmlns="http://www.w3.org/2000/svg" viewBox="0 0 136.93 97.79">
  <defs>
    <style>
      .cls-1 {
        fill: #01b8eb;
      }
    </style>
  </defs>
  <g id="Layer_3" data-name="Layer 3">
    <g>
      <path class="cls-1" d="M109.37,42.56c-.51,0-1.01-.19-1.39-.52l-5.56-4.88c-.88-.77-.96-2.1-.19-2.98.77-.87,2.1-.96,2.98-.19l3.94,3.46,8.26-9.76c.75-.89,2.08-1,2.97-.25.89.75,1,2.08.25,2.97l-9.65,11.4c-.37.43-.89.7-1.46.74-.05,0-.1,0-.16,0Z"/>
      <g>
        <path class="cls-1" d="M31.82,48.56c-1.17,0-2.11-.95-2.11-2.11v-13.01c0-1.17.95-2.11,2.11-2.11s2.11.95,2.11,2.11v13.01c0,1.17-.95,2.11-2.11,2.11Z"/>
        <path class="cls-1" d="M40.26,48.56c-1.17,0-2.11-.95-2.11-2.11v-20.85c0-1.17.95-2.11,2.11-2.11s2.11.95,2.11,2.11v20.85c0,1.17-.95,2.11-2.11,2.11Z"/>
        <path class="cls-1" d="M48.7,48.56c-1.16,0-2.1-.94-2.11-2.1l-.09-15.69c0-1.17.93-2.12,2.1-2.12h.01c1.16,0,2.1.94,2.11,2.1l.09,15.69c0,1.17-.93,2.12-2.1,2.12h-.01Z"/>
        <path class="cls-1" d="M57.14,48.56c-1.17,0-2.11-.95-2.11-2.11v-11.7c0-1.17.95-2.11,2.11-2.11s2.11.95,2.11,2.11v11.7c0,1.17-.95,2.11-2.11,2.11Z"/>
        <path class="cls-1" d="M65.59,48.56c-1.17,0-2.11-.95-2.11-2.11v-16.16c0-1.17.95-2.11,2.11-2.11s2.11.95,2.11,2.11v16.16c0,1.17-.95,2.11-2.11,2.11Z"/>
        <path class="cls-1" d="M74.03,48.56c-1.17,0-2.11-.95-2.11-2.11v-14.57c0-1.17.95-2.11,2.11-2.11s2.11.95,2.11,2.11v14.57c0,1.17-.95,2.11-2.11,2.11Z"/>
        <path class="cls-1" d="M82.47,48.56c-1.17,0-2.11-.95-2.11-2.11v-28.12c0-1.17.95-2.11,2.11-2.11s2.11.95,2.11,2.11v28.12c0,1.17-.95,2.11-2.11,2.11Z"/>
      </g>
      <g>
        <path class="cls-1" d="M136.93,55.96c0,.84-.33,1.63-.93,2.23l-2.76,2.75c-1.23,1.23-3.22,1.23-4.45,0l-9.56-9.81c-1.65.79-4.63,1.9-8.25,1.9-9.91,0-18.05-7.43-18.92-17.29-.1-1.09-.12-2.04-.03-3.03.66-9.89,8.98-17.67,18.95-17.67s18.29,7.78,18.95,17.71c.08.89.07,1.9-.03,2.99-.27,3.08-1.31,6.08-3.02,8.68l-.02.08,9.15,9.24c.59.59.92,1.38.92,2.22ZM131.02,58.54l2.6-2.59-11.07-11.18.96-1.14c.1-.12.16-.19.19-.24,0-.03.05-.11.15-.27v-.04s.19-.26.19-.26c1.48-2.2,2.39-4.75,2.62-7.37.07-.8.1-1.62.03-2.44-.55-8.27-7.44-14.71-15.7-14.71s-15.14,6.44-15.69,14.67c-.08.92-.05,1.69.02,2.48.72,8.16,7.46,14.32,15.67,14.32,3.34,0,6.04-1.15,7.35-1.84.13-.07.3-.16.36-.2l1.11-.67.92.92,10.3,10.57Z"/>
        <path class="cls-1" d="M112.35,18.02c1.17,0,2.11-.94,2.11-2.11V6.88c0-3.79-3.08-6.88-6.87-6.88H6.87C3.08,0,0,3.09,0,6.88v61.34c0,3.79,3.08,6.88,6.87,6.88h39.66v10.36h-8.31c-2.71,0-4.91,2.2-4.91,4.91v2.51c0,2.71,2.2,4.91,4.91,4.91h38.02c2.71,0,4.91-2.2,4.91-4.91v-2.51c0-2.71-2.2-4.91-4.91-4.91h-8.31v-10.36h39.66c3.79,0,6.87-3.09,6.87-6.88v-16.25c0-1.17-.94-2.11-2.11-2.11s-2.11.95-2.11,2.11v8.76H4.22V6.88c0-1.47,1.19-2.66,2.65-2.66h100.72c1.46,0,2.64,1.19,2.64,2.66v9.03c0,1.17.94,2.11,2.11,2.11ZM76.24,89.68c.38,0,.69.31.69.69v2.51c0,.38-.31.69-.69.69h-38.02c-.38,0-.69-.31-.69-.69v-2.51c0-.38.31-.69.69-.69h38.02ZM63.62,85.46h-12.78v-10.36h12.78v10.36ZM110.24,64.96v3.26c0,1.47-1.19,2.66-2.64,2.66H6.87c-1.46,0-2.65-1.19-2.65-2.66v-3.26h106.01Z"/>
      </g>
    </g>
  </g>
</svg>