<?xml version="1.0" encoding="UTF-8"?>
<svg id="Layer_2" data-name="Layer 2" xmlns="http://www.w3.org/2000/svg" viewBox="0 0 114.46 97.79">
  <defs>
    <style>
      .cls-1 {
        fill: #01b8eb;
      }
    </style>
  </defs>
  <g id="Layer_3" data-name="Layer 3">
    <g>
      <g>
        <path class="cls-1" d="M79.96,22.26h-28.34c-1.17,0-2.11-.94-2.11-2.11s.94-2.11,2.11-2.11h28.34c1.17,0,2.11.94,2.11,2.11s-.94,2.11-2.11,2.11Z"/>
        <path class="cls-1" d="M79.96,31.4h-28.34c-1.17,0-2.11-.94-2.11-2.11s.94-2.11,2.11-2.11h28.34c1.17,0,2.11.94,2.11,2.11s-.94,2.11-2.11,2.11Z"/>
        <path class="cls-1" d="M79.96,40.55h-28.34c-1.17,0-2.11-.95-2.11-2.11s.94-2.11,2.11-2.11h28.34c1.17,0,2.11.95,2.11,2.11s-.94,2.11-2.11,2.11Z"/>
        <path class="cls-1" d="M79.96,49.7h-28.34c-1.17,0-2.11-.95-2.11-2.11s.94-2.11,2.11-2.11h28.34c1.17,0,2.11.95,2.11,2.11s-.94,2.11-2.11,2.11Z"/>
        <path class="cls-1" d="M38.02,27.03c-.51,0-1.01-.19-1.39-.53l-3.52-3.09c-.88-.77-.96-2.1-.19-2.98.77-.88,2.1-.96,2.98-.19l1.91,1.68,4.73-5.58c.75-.89,2.09-1,2.97-.25.89.75,1,2.08.25,2.97l-6.12,7.23c-.37.43-.89.7-1.45.74-.05,0-.1,0-.16,0Z"/>
        <path class="cls-1" d="M38.02,39.5c-.51,0-1.01-.19-1.39-.52l-3.52-3.09c-.88-.77-.96-2.1-.19-2.98.77-.88,2.1-.96,2.98-.19l1.91,1.68,4.73-5.59c.75-.89,2.08-1,2.97-.25.89.75,1,2.09.25,2.97l-6.12,7.23c-.37.43-.89.7-1.45.74-.05,0-.1,0-.16,0Z"/>
        <path class="cls-1" d="M38.02,51.73c-.51,0-1.01-.19-1.39-.53l-3.52-3.09c-.88-.77-.96-2.1-.19-2.98.77-.87,2.1-.96,2.98-.19l1.91,1.68,4.73-5.59c.75-.89,2.08-1,2.97-.25.89.75,1,2.08.25,2.97l-6.12,7.23c-.37.43-.89.7-1.45.74-.05,0-.1,0-.16,0Z"/>
      </g>
      <path class="cls-1" d="M112.35,18.02c1.17,0,2.11-.94,2.11-2.11V6.88c0-3.79-3.08-6.88-6.87-6.88H6.87C3.08,0,0,3.09,0,6.88v61.34c0,3.79,3.08,6.88,6.87,6.88h39.66v10.36h-8.31c-2.71,0-4.91,2.2-4.91,4.91v2.51c0,2.71,2.2,4.91,4.91,4.91h38.02c2.71,0,4.91-2.2,4.91-4.91v-2.51c0-2.71-2.2-4.91-4.91-4.91h-8.31v-10.36h39.66c3.79,0,6.87-3.09,6.87-6.88v-16.25c0-1.17-.94-2.11-2.11-2.11s-2.11.95-2.11,2.11v8.76H4.22V6.88c0-1.47,1.19-2.66,2.65-2.66h100.72c1.46,0,2.64,1.19,2.64,2.66v9.03c0,1.17.94,2.11,2.11,2.11ZM76.24,89.68c.38,0,.69.31.69.69v2.51c0,.38-.31.69-.69.69h-38.02c-.38,0-.69-.31-.69-.69v-2.51c0-.38.31-.69.69-.69h38.02ZM63.62,85.46h-12.78v-10.36h12.78v10.36ZM110.24,64.96v3.26c0,1.47-1.19,2.66-2.64,2.66H6.87c-1.46,0-2.65-1.19-2.65-2.66v-3.26h106.01Z"/>
      <polygon class="cls-1" points="110.24 14.17 110.24 51.97 114.46 51.97 114.46 13.01 110.24 14.17"/>
    </g>
  </g>
</svg>