<?xml version="1.0" encoding="UTF-8"?>
<svg id="Layer_2" data-name="Layer 2" xmlns="http://www.w3.org/2000/svg" viewBox="0 0 29.75 24.18">
  <defs>
    <style>
      .cls-1 {
        fill: #05094f;
      }
    </style>
  </defs>
  <g id="objekti">
    <path class="cls-1" d="M0,21.44c2.7,1.73,5.91,2.74,9.36,2.74,11.33,0,17.74-9.57,17.35-18.16,1.19-.86,2.23-1.93,3.05-3.16-1.1.49-2.27.81-3.51.96,1.26-.75,2.23-1.95,2.68-3.38-1.18.7-2.49,1.21-3.88,1.48-1.11-1.19-2.7-1.93-4.46-1.93-3.94,0-6.84,3.68-5.95,7.49-5.07-.25-9.57-2.68-12.58-6.38-1.6,2.74-.83,6.33,1.89,8.15-1-.03-1.94-.31-2.77-.76-.07,2.83,1.96,5.47,4.9,6.06-.86.23-1.8.29-2.76.1.78,2.43,3.03,4.19,5.7,4.24-2.57,2.01-5.8,2.91-9.04,2.53Z"/>
  </g>
</svg>