<?xml version="1.0" encoding="UTF-8"?>
<svg id="Layer_2" data-name="Layer 2" xmlns="http://www.w3.org/2000/svg" viewBox="0 0 34.5 31">
  <defs>
    <style>
      .cls-1 {
        fill: #bdbdbd;
      }
    </style>
  </defs>
  <g id="log_in" data-name="log in">
    <g>
      <path class="cls-1" d="M10.14,27.36c0-.74,0-1.52,0-2.3,0-3.69.01-7.38-.01-11.07,0-.53.17-.82.62-1.07,1.95-1.1,3.68-2.48,5.08-4.24,1.38-1.75,2.22-3.7,2.28-5.96.05-1.85,1.48-2.99,3.22-2.66,1.12.21,2.03,1.21,2.06,2.37.07,2.7-.1,5.38-1.1,7.91-.49,1.24.35,2.11,1.49,2.08,2.66-.07,5.33-.04,7.99-.02,2,.02,3.25,1.89,2.51,3.72-.27.67-.78,1.1-1.46,1.43.68.76.95,1.63.7,2.61-.25,1-.95,1.58-1.93,1.93.73.94.92,1.94.42,2.99-.49,1.04-1.4,1.49-2.59,1.53.54.69.73,1.4.6,2.18-.2,1.25-1.21,2.21-2.51,2.22-3.11.02-6.22,0-9.32-.07-1.68-.04-3.18-.71-4.52-1.73-.65-.5-1.32-.98-2.03-1.38-.43-.24-.96-.3-1.51-.46Z"/>
      <path class="cls-1" d="M0,29.68V11.1c.16-.01.3-.04.43-.04,2.01,0,4.03-.01,6.04,0,1.19,0,1.92.74,1.92,1.92,0,4.9,0,9.8,0,14.7,0,1.28-.73,1.99-2.01,1.99-1.95,0-3.89,0-5.84,0-.17,0-.33,0-.54,0Z"/>
    </g>
  </g>
</svg>